<svg xmlns="http://www.w3.org/2000/svg" xmlns:xlink="http://www.w3.org/1999/xlink" version="1.1" id="Layer_1" x="0px" y="0px" width="100px" height="100px" viewBox="0 0 100 100" enable-background="new 0 0 100 100" xml:space="preserve">
<rect fill="none" width="100" height="100"/>
<path d="M88.986,53.668c0-3.865-0.241-7.641-0.717-11.23c-0.204-1.531-0.923-2.88-1.768-3.914c0.39-1.482,0.471-3.2,0.197-4.264  c-0.547-2.127-1.199-4.214-1.942-6.204c-0.552-1.467-1.73-2.939-3.03-3.914c-0.084-1.625-0.478-3.653-1.347-5.042  c-3.409-5.455-7.631-9.605-12.21-12.008c-1.093-0.571-2.553-0.743-3.825-0.497C63.267,5.685,61.878,5,60.494,5  C58.241,5,53.104,5.717,50,7.654C46.897,5.717,41.761,5,39.508,5c-1.384,0-2.772,0.685-3.85,1.595  c-1.275-0.246-2.732-0.079-3.831,0.497c-4.576,2.403-8.798,6.553-12.208,12.008c-0.869,1.389-1.26,3.417-1.344,5.042  c-1.302,0.975-2.481,2.452-3.033,3.919c-0.736,1.97-1.391,4.052-1.94,6.199c-0.273,1.063-0.192,2.782,0.195,4.264  c-0.842,1.034-1.561,2.383-1.765,3.914c-0.478,3.589-0.719,7.366-0.719,11.23c0,1.305,0.526,2.551,1.063,3.476  c-0.562,1.295-0.776,2.428-0.652,3.441c0.303,2.467,0.783,4.864,1.428,7.135c0.376,1.314,1.174,2.634,2.248,3.529  c-0.082,1.654,0.367,3.323,0.999,4.485c2.526,4.673,5.977,8.65,10.261,11.831c1.287,0.955,3.05,1.433,4.788,1.359  c0.901,1.433,2.242,2.806,3.604,3.362C38.89,93.985,43.454,95,46.962,95c1.03,0,2.103-0.433,3.04-1.113  C50.938,94.567,52.01,95,53.038,95c3.51,0,8.074-1.015,12.207-2.713c1.366-0.557,2.708-1.93,3.609-3.362  c0.135,0.005,0.268,0.01,0.406,0.01c1.634,0,3.19-0.487,4.384-1.369c4.278-3.176,7.729-7.158,10.261-11.826  c0.63-1.167,1.075-2.836,0.997-4.49c1.075-0.896,1.873-2.22,2.25-3.534c0.64-2.255,1.12-4.653,1.425-7.135  c0.121-1.009-0.091-2.142-0.652-3.437C88.459,56.219,88.986,54.973,88.986,53.668z M46.839,89.958  c-2.245-0.02-6.056-0.645-10.15-2.323c-0.492-0.256-1.501-1.556-1.637-2.107l-0.248-1.119c0.875-1.991,1.508-4.023,1.888-6.047  c1.48,0.266,2.867,1.062,3.741,2.253c0.647,0.886,1.28,2.338,0.63,4.264c-0.224,0.659,0.13,1.373,0.79,1.595  c0.133,0.044,0.269,0.069,0.404,0.069c0.524,0,1.014-0.33,1.194-0.857c0.778-2.299,0.429-4.628-0.982-6.558  c-1.29-1.758-3.282-2.915-5.43-3.268c0.307-3.578-0.189-7.046-1.52-10.09c-0.275-0.635-1.019-0.926-1.659-0.649  c-0.637,0.28-0.928,1.023-0.65,1.659c2.101,4.806,1.811,10.871-0.705,16.598l-0.885,0.368c-0.581,0.241-1.75,0.147-2.258-0.227  c-3.685-2.737-6.656-6.164-8.833-10.187c-0.379-0.694-0.524-1.9-0.291-2.388l1.681-3.475c0.088-0.156,0.176-0.313,0.25-0.468  c0.487-0.448,1.356,0.111,1.624,0.304c1.411,1.029,2.814,3.584,1.352,5.819c-0.381,0.581-0.219,1.364,0.362,1.743  c0.214,0.143,0.453,0.207,0.689,0.207c0.411,0,0.815-0.197,1.056-0.566c2.137-3.265,0.64-7.336-1.975-9.236  c-0.791-0.576-1.614-0.878-2.395-0.94c0.106-1.175-0.017-2.3-0.133-3.333l-0.057-0.497c-0.071-0.689-0.685-1.182-1.386-1.118  c-0.694,0.074-1.194,0.694-1.12,1.389l0.056,0.512c0.245,2.144,0.456,4.054-1.311,6.046h-0.651c-0.185-0.182-0.462-0.57-0.583-0.989  c-0.571-2.019-1-4.16-1.268-6.321c0-0.005,0.017-0.532,0.753-1.827l0.227-0.397c0.836-0.174,1.722-0.386,2.634-0.631  c0.012-0.002,0.022,0.002,0.034,0c1.834-0.39,3.712,0.044,5.15,1.181c1.376,1.099,2.156,2.679,2.191,4.466  c0.015,0.689,0.576,1.236,1.26,1.236c0.01,0,0.017,0,0.027,0c0.694-0.016,1.249-0.591,1.233-1.285  c-0.052-2.516-1.196-4.845-3.146-6.391c-0.47-0.373-0.976-0.687-1.503-0.95c0.055-0.022,0.108-0.047,0.163-0.069l0,0  c3.497-1.427,6.768-3.336,8.634-5.701c0.431-0.546,0.337-1.339-0.209-1.772c-0.542-0.428-1.337-0.334-1.77,0.212  c-1.271,1.61-3.505,3.075-6.127,4.295c0.13-3.137,1.669-6.055,2.693-6.447c0.65-0.251,0.975-0.979,0.724-1.629  c-0.249-0.65-0.982-0.97-1.627-0.724c-2.547,0.975-4.518,5.653-4.303,9.854c-1.276,0.48-2.595,0.901-3.906,1.257  c-0.002,0.001-0.003,0.001-0.005,0.001c-0.001,0-0.002,0.001-0.003,0.001c-0.888,0.241-1.769,0.449-2.631,0.625  c-0.533-0.651-0.867-1.401-0.869-1.655c0-3.644,0.227-7.198,0.674-10.561c0.099-0.744,0.702-1.551,1.246-1.965l1-0.662  c0.231-0.005,0.465-0.007,0.691-0.019c-0.078,1.549-0.239,4.036-0.532,5.826c-0.113,0.689,0.354,1.334,1.041,1.448  c0.069,0.01,0.136,0.015,0.205,0.015c0.605,0,1.142-0.438,1.243-1.054c0.344-2.114,0.513-5.015,0.583-6.546  c1.501-0.292,2.795-0.765,3.75-1.41c0.576-0.389,0.729-1.172,0.34-1.753c-0.389-0.576-1.172-0.729-1.75-0.334  c-0.947,0.641-2.971,1.277-5.828,1.309l-0.193-0.246c-0.214-0.424-0.418-1.777-0.337-2.206c0.504-1.969,1.103-3.879,1.777-5.682  c0.305-0.817,1.265-1.703,1.634-1.846l0.245-0.08c1.016,0.792,2.278,1.879,3.517,3.271c0.005,0.005,0.007,0.013,0.012,0.019  c0.009,0.009,0.02,0.016,0.029,0.025c1.981,2.237,3.881,5.25,4.558,9.073c0.108,0.61,0.64,1.044,1.241,1.044  c0.071,0,0.145-0.005,0.219-0.02c0.687-0.123,1.145-0.778,1.021-1.462c-0.45-2.545-1.367-4.753-2.486-6.656  c0.736,0.105,1.479,0.157,2.191,0.157c2.011,0,3.769-0.35,4.377-0.669c0.604-0.315,0.817-1.039,0.52-1.654  c-0.295-0.611-1.059-0.862-1.676-0.586c-0.857,0.381-6.216,0.934-8.127-0.958c-0.17-0.191-0.341-0.378-0.511-0.559  c1.946-1.976,4.068-5.856,4.47-6.691c0.301-0.63,0.037-1.383-0.591-1.684c-0.63-0.305-1.383-0.035-1.681,0.591  c-0.992,2.062-2.914,4.924-3.994,6.044c-0.544-0.482-1.057-0.901-1.524-1.265l-0.087-0.669c-0.116-0.872,0.165-2.821,0.576-3.481  c2.895-4.633,6.543-8.256,10.258-10.206c0.042-0.02,0.401-0.054,0.544-0.02l0.47,0.46c0.037,3.965-0.481,9.968-2.542,12.842  c-0.406,0.562-0.276,1.349,0.29,1.758c0.222,0.158,0.478,0.236,0.734,0.236c0.391,0,0.778-0.182,1.024-0.527  c1.097-1.53,1.809-3.629,2.268-5.85c1.119,1.538,2.641,2.482,4.305,2.482c0.697,0,1.26-0.566,1.26-1.26  c0-0.699-0.563-1.26-1.26-1.26c-1.711,0-3.368-2.457-3.619-5.362c-0.001-0.01-0.007-0.018-0.008-0.027  c0.055-1.002,0.072-1.941,0.068-2.792l0.804-1.346c0.209-0.35,0.832-0.808,1.017-0.862c3.289,0,6.851,1.177,7.971,1.945v6.216  c-0.637,0.939-1.232,2.058-1.844,3.217c-1.516,2.88-3.234,6.14-5.502,6.14c-0.696,0-1.26,0.566-1.26,1.26  c0,0.699,0.564,1.261,1.26,1.261c3.527,0,5.586-3.444,7.346-6.752v31.338c-1.64-1.142-3.161-1.908-4.237-2.38  c-0.84-1.255-0.544-3.506,0.237-5.181c0.677-1.452,1.403-1.9,1.59-1.9c0.696,0,1.26-0.566,1.26-1.26c0-0.699-0.564-1.261-1.26-1.261  c-0.888,0-1.755,0.454-2.523,1.282c-0.191-0.279-0.394-0.559-0.601-0.843c-0.943-1.285-2.009-2.742-1.792-3.988  c0.13-0.733,0.733-1.467,1.794-2.181c0.579-0.389,0.731-1.172,0.345-1.748c-0.389-0.581-1.172-0.733-1.75-0.345  c-1.652,1.113-2.619,2.403-2.87,3.84c-0.404,2.299,1.061,4.303,2.24,5.913c0.44,0.605,1.108,1.515,1.149,1.748  c-0.859,2.016-1.206,4.569-0.357,6.544c-0.596,0.473-1.078,1.004-1.551,1.521c-1.189,1.31-2.216,2.433-5.074,2.782  c-0.689,0.084-1.182,0.714-1.098,1.403c0.079,0.64,0.62,1.107,1.25,1.107c0.049,0,0.101,0,0.152-0.01  c3.786-0.458,5.364-2.191,6.632-3.584c0.496-0.542,0.943-1.027,1.478-1.407c1.775,0.811,3.502,1.893,4.984,3.121v11.662  c-2.248-2.509-4.912-4.554-6.252-5.346c-0.596-0.35-1.371-0.153-1.726,0.442c-0.354,0.601-0.158,1.374,0.443,1.729  c2.195,1.3,5.681,4.403,7.535,7.31v15.742C47.324,89.604,47.041,89.87,46.839,89.958z M82.305,66.331  c-0.123,0.423-0.401,0.817-0.583,0.999h-0.654c-1.768-1.992-1.556-3.902-1.313-6.046l0.057-0.512  c0.076-0.694-0.426-1.314-1.118-1.389c-0.714-0.099-1.314,0.429-1.388,1.118l-0.055,0.497c-0.117,1.032-0.241,2.155-0.136,3.329  c-0.78,0.063-1.604,0.366-2.395,0.944c-2.612,1.9-4.111,5.972-1.972,9.236c0.241,0.369,0.643,0.566,1.054,0.566  c0.236,0,0.478-0.064,0.688-0.207c0.584-0.379,0.746-1.162,0.364-1.743c-1.462-2.235-0.059-4.79,1.35-5.819  c0.266-0.192,1.138-0.753,1.625-0.304c0.099,0.209,0.211,0.418,0.336,0.627l1.596,3.315c0.234,0.487,0.087,1.693-0.29,2.393  c-2.179,4.018-5.15,7.444-8.83,10.177c-0.32,0.236-0.835,0.379-1.381,0.379c-0.333,0-0.66-0.054-0.879-0.147l-0.877-0.346  c-2.524-5.732-2.817-11.809-0.714-16.62c0.281-0.636-0.012-1.379-0.649-1.659c-0.636-0.281-1.381,0.015-1.659,0.649  c-1.329,3.041-1.827,6.507-1.521,10.082c-2.181,0.344-4.138,1.51-5.428,3.275c-1.413,1.93-1.761,4.259-0.982,6.558  c0.18,0.527,0.669,0.857,1.193,0.857c0.136,0,0.271-0.025,0.406-0.069c0.657-0.222,1.012-0.94,0.788-1.595  c-0.649-1.926-0.018-3.378,0.628-4.259c0.873-1.191,2.277-1.993,3.742-2.259c0.382,2.035,1.021,4.081,1.904,6.083l-0.266,1.084  c-0.135,0.552-1.142,1.852-1.612,2.098c-4.118,1.688-7.927,2.313-10.172,2.333c-0.201-0.093-0.487-0.354-0.643-0.58V79.004  c2.841-1.416,6.393-5.591,7.041-7.616c0.209-0.665-0.155-1.374-0.82-1.586c-0.659-0.207-1.371,0.158-1.583,0.817  c-0.463,1.451-2.871,4.047-4.638,5.43V57.84c1.469-1.219,3.179-2.293,4.938-3.102c0.498,0.685,0.682,2.511,0.817,3.912  c0.214,2.196,0.434,4.466,1.625,5.938c0.248,0.306,0.612,0.468,0.981,0.468c0.278,0,0.56-0.094,0.791-0.28  c0.541-0.438,0.625-1.231,0.187-1.772c-0.656-0.815-0.87-2.543-1.032-4.171c3.198-0.198,5.293-0.102,5.579-0.034  c0.16,0.069,0.33,0.099,0.495,0.099c0.489,0,0.955-0.285,1.159-0.763c0.273-0.641-0.022-1.379-0.662-1.654  c-0.903-0.386-4.33-0.316-6.858-0.156c-0.205-1.34-0.542-2.564-1.285-3.389c0.881-2.08,0.876-5.285,0.39-8.053  c-0.217-0.927,1.625-3.448,5.187-6.186c0.551-0.423,0.657-1.216,0.231-1.768c-0.424-0.551-1.217-0.655-1.768-0.231  c-1.691,1.299-3.489,2.886-4.712,4.514c-0.008-0.019-0.016-0.04-0.024-0.058c-0.724-1.551-1.645-2.339-2.737-2.339  c-0.697,0-1.337,0.546-1.337,1.241c0,0.699,0.484,1.246,1.182,1.246c0.27,0.161,0.992,1.334,1.458,3.777  c0.014,0.147,0.043,0.291,0.078,0.435c0.472,2.845,0.277,5.641-0.45,6.777c-1.076,0.473-2.595,1.238-4.232,2.379V22.027  c1.952,2.924,3.729,6.863,3.88,10.126c0.032,0.674,0.589,1.201,1.258,1.201c0.02,0,0.039,0,0.06,0  c0.694-0.035,1.233-0.621,1.201-1.319c-0.236-5.048-3.536-10.958-6.398-14.113v-5.935c1.12-0.768,4.675-1.945,7.875-1.955  c0.283,0.064,0.906,0.522,1.113,0.872l0.805,1.349c-0.004,0.852,0.013,1.792,0.067,2.794c0,0.008-0.005,0.015-0.006,0.022  c-0.251,2.905-1.91,5.362-3.619,5.362c-0.696,0-1.26,0.561-1.26,1.26c0,0.694,0.563,1.26,1.26,1.26c1.663,0,3.184-0.943,4.303-2.482  c0.459,2.221,1.171,4.32,2.268,5.85c0.246,0.345,0.633,0.527,1.027,0.527c0.253,0,0.509-0.079,0.733-0.236  c0.563-0.409,0.694-1.196,0.288-1.758c-2.06-2.875-2.579-8.878-2.541-12.843l0.468-0.46c0.146-0.035,0.513,0.005,0.529,0.01  c3.732,1.959,7.381,5.583,10.272,10.216c0.414,0.66,0.692,2.609,0.579,3.481l-0.039,0.632c-0.48,0.373-1.01,0.803-1.573,1.302  c-1.081-1.123-3.002-3.982-3.99-6.045c-0.304-0.63-1.052-0.896-1.682-0.591c-0.628,0.3-0.894,1.053-0.591,1.679  c0.4,0.838,2.52,4.722,4.467,6.697c-0.174,0.183-0.347,0.374-0.521,0.568c-1.924,1.877-7.259,1.332-8.104,0.957  c-0.618-0.325-1.378-0.084-1.701,0.527c-0.324,0.62-0.086,1.378,0.529,1.704c0.61,0.32,2.368,0.669,4.38,0.669  c0.712,0,1.455-0.052,2.19-0.157c-1.119,1.902-2.037,4.111-2.488,6.656c-0.121,0.684,0.335,1.339,1.021,1.462  c0.074,0.01,0.147,0.02,0.222,0.02c0.598,0,1.13-0.429,1.238-1.044c0.678-3.82,2.576-6.833,4.556-9.07  c0.01-0.01,0.022-0.018,0.032-0.028c0.006-0.006,0.008-0.016,0.014-0.022c1.244-1.398,2.512-2.488,3.529-3.28l0.222,0.087  c0.379,0.148,1.337,1.034,1.645,1.851c0.677,1.812,1.274,3.727,1.772,5.662c0.083,0.448-0.118,1.802-0.236,2.083l-0.306,0.386  c-2.852-0.036-4.866-0.67-5.813-1.306c-0.578-0.394-1.361-0.241-1.75,0.334c-0.389,0.581-0.238,1.364,0.34,1.753  c0.938,0.633,2.239,1.103,3.747,1.396c0.069,1.528,0.238,4.439,0.586,6.56c0.101,0.616,0.635,1.054,1.243,1.054  c0.066,0,0.135-0.005,0.204-0.015c0.687-0.113,1.152-0.758,1.041-1.448c-0.294-1.794-0.455-4.288-0.533-5.836  c0.269,0.015,0.542,0.021,0.816,0.025l0.874,0.666c0.547,0.418,1.149,1.221,1.248,1.96c0.445,3.367,0.672,6.922,0.672,10.565  c-0.002,0.254-0.333,1.004-0.869,1.655c-0.86-0.176-1.739-0.384-2.625-0.623c-0.002-0.001-0.004-0.003-0.006-0.003  c-0.003-0.001-0.007-0.001-0.011-0.002c-1.31-0.355-2.628-0.775-3.901-1.256c0.212-4.2-1.759-8.88-4.303-9.854  c-0.65-0.246-1.379,0.074-1.63,0.724c-0.249,0.65,0.076,1.378,0.727,1.629c1.023,0.392,2.563,3.311,2.692,6.448  c-2.623-1.22-4.857-2.685-6.127-4.296c-0.429-0.546-1.221-0.64-1.77-0.212c-0.547,0.433-0.641,1.226-0.21,1.772  c1.894,2.403,5.236,4.338,8.797,5.771c-0.528,0.265-1.034,0.579-1.505,0.954c-1.947,1.546-3.095,3.87-3.146,6.386  c-0.012,0.694,0.539,1.27,1.236,1.285c0.007,0,0.017,0,0.024,0c0.685,0,1.246-0.547,1.261-1.236c0.036-1.787,0.814-3.367,2.193-4.46  c1.438-1.143,3.315-1.576,5.149-1.187c0.011,0.002,0.021-0.002,0.032,0c0.912,0.245,1.799,0.457,2.636,0.631l0.228,0.397  c0.706,1.246,0.748,1.777,0.755,1.777C83.3,62.19,82.871,64.332,82.305,66.331z"/>
</svg>